#!OML:ASF F:\VICON\USERDATA\INSTALL\rory3\rory3.ASF
:FULLY-SPECIFIED
:DEGREES
390
root 0.589536 17.6673 35.9194 -2.58775 2.51528 0.412791
lowerback 8.13477 -1.91109 -2.82304
upperback 0.568345 -2.69311 2.68624
thorax -3.7099 -1.27384 4.68325
lowerneck -16.4502 -2.8466 -2.44396
upperneck 19.9317 -3.59234 1.21339
head 9.03709 -1.73856 0.367937
rclavicle 1.50331e-014 -5.56597e-015
rhumerus -36.3488 -22.6823 -73.9324
rradius 20.8191
rwrist 11.4382
rhand -14.8282 27.3315
rfingers 7.12502
rthumb 11.3304 -2.34242
lclavicle 1.50331e-014 -5.56597e-015
lhumerus -28.0108 -4.35976 81.2034
lradius 33.5974
lwrist 5.60502
lhand -25.0575 23.4496
lfingers 7.12502
lthumb 1.45608 53.4244
rfemur -27.4195 4.79138 20.7986
rtibia 28.3978
rfoot -5.47611 -5.89212
rtoes -1.52319
lfemur 15.7046 -5.37082 -23.7004
ltibia 29.3675
lfoot -7.79067 -9.23753
ltoes -37.1125
391
root 0.589462 17.6711 36.122 -2.7316 2.76328 0.721223
lowerback 8.12148 -2.0054 -2.89885
upperback 0.602065 -2.8297 2.58018
thorax -3.65536 -1.34316 4.62711
lowerneck -16.2777 -2.7241 -2.19733
upperneck 19.6976 -3.39191 0.794369
head 8.90855 -1.67334 0.2138
rclavicle -3.51103e-014 7.15625e-015
rhumerus -36.4441 -22.2674 -74.0509
rradius 21.138
rwrist 11.2608
rhand -14.8571 26.4148
rfingers 7.12502
rthumb 11.3026 -3.26063
lclavicle -3.51103e-014 7.15625e-015
lhumerus -28.0579 -3.90303 81.3203
lradius 33.0099
lwrist 5.74179
lhand -25.0763 23.6567
lfingers 7.12502
lthumb 1.43785 53.6316
rfemur -26.9735 3.7122 20.7255
rtibia 29.1653
rfoot -5.05795 -4.78581
rtoes 0.171256
lfemur 15.0725 -5.27417 -24.037
ltibia 31.6548
lfoot -5.71025 -10.1669
ltoes -34.4933
392
root 0.568531 17.6853 36.319 -2.85478 2.68163 0.424848
lowerback 8.10738 -1.98972 -2.60549
upperback 0.665972 -2.77941 2.6491
thorax -3.59645 -1.3247 4.52526
lowerneck -16.1965 -2.72849 -2.16773
upperneck 19.5607 -3.40384 0.786309
head 8.84631 -1.67817 0.206707
rclavicle -2.75814e-014 8.74653e-015
rhumerus -36.6789 -22.5621 -73.8256
rradius 21.3148
rwrist 11.6927
rhand -14.3478 25.1785
rfingers 7.12502
rthumb 11.7938 -4.46943
lclavicle -2.75814e-014 8.74653e-015
lhumerus -28.1572 -3.32984 81.3088
lradius 32.654
lwrist 5.62323
lhand -24.88 22.7226
lfingers 7.12502
lthumb 1.62744 52.6961
rfemur -26.5406 3.43472 21.3387
rtibia 29.7637
rfoot -5.10915 -4.08354
rtoes -0.409029
lfemur 14.2699 -5.55829 -23.5685
ltibia 34.1798
lfoot -1.98617 -11.1056
ltoes -26.2551
393
root 0.537119 17.7106 36.5093 -2.96305 2.62467 0.00659423
lowerback 8.36465 -1.96356 -2.28204
upperback 0.599796 -2.71235 2.77049
thorax -3.82475 -1.28912 4.47756
lowerneck -16.2224 -2.78073 -2.21332
upperneck 19.6549 -3.47821 0.843433
head 8.88647 -1.71004 0.223339
rclavicle -1.86361e-015 2.38542e-015
rhumerus -36.9326 -23.3871 -73.2699
rradius 21.0535
rwrist 12.2656
rhand -14.144 23.0383
rfingers 7.12502
rthumb 11.9903 -6.59826
lclavicle -1.86361e-015 2.38542e-015
lhumerus -28.6473 -2.77283 81.3216
lradius 32.7272
lwrist 5.33084
lhand -24.2951 24.6612
lfingers 7.12502
lthumb 2.19233 54.6297
rfemur -26.0627 3.48186 22.0487
rtibia 30.2613
rfoot -5.32421 -3.77769
rtoes 1.27482
lfemur 12.6545 -5.454 -22.8368
ltibia 36.7088
lfoot 2.11112 -12.2999
ltoes -20.8956
394
root 0.504894 17.7231 36.6923 -3.03212 2.64903 -0.510467
lowerback 8.54523 -1.9261 -1.88035
upperback 0.573744 -2.61756 2.94957
thorax -3.97131 -1.24373 4.43754
lowerneck -16.5473 -2.79566 -2.24072
upperneck 19.9417 -3.50711 0.927163
head 9.04692 -1.71404 0.246358
rclavicle 5.91384e-015 -1.43125e-014
rhumerus -36.9896 -24.2979 -72.6998
rradius 20.5881
rwrist 12.6869
rhand -14.3277 22.0982
rfingers 7.12502
rthumb 11.8132 -7.54865
lclavicle 5.91384e-015 -1.43125e-014
lhumerus -28.9154 -2.56392 81.4913
lradius 32.6038
lwrist 5.21002
lhand -24.1933 27.0609
lfingers 7.12502
lthumb 2.29072 57.0283
rfemur -25.4863 3.49837 22.8474
rtibia 30.4859
rfoot -5.29862 -3.65392
rtoes 3.83432
lfemur 11.0614 -5.31488 -21.9409
ltibia 39.2605
lfoot 5.33592 -13.7139
ltoes -18.8617
395
root 0.477316 17.7432 36.88 -3.23015 2.72473 -1.05176
lowerback 8.77491 -1.91958 -1.35423
upperback 0.553421 -2.551 3.08782
thorax -4.14363 -1.21489 4.28922
lowerneck -16.5544 -2.7949 -2.22075
upperneck 20.0259 -3.50889 0.911782
head 9.07658 -1.71482 0.236974
rclavicle -4.58447e-014 3.65764e-014
rhumerus -37.1692 -24.8888 -72.3049
rradius 20.3755
rwrist 13.0637
rhand -14.4727 22.0195
rfingers 7.12502
rthumb 11.6733 -7.63533
lclavicle -4.58447e-014 3.65764e-014
lhumerus -29.1772 -2.39 81.6678
lradius 32.2432
lwrist 5.0815
lhand -24.2263 28.2695
lfingers 7.12502
lthumb 2.25884 58.2373
rfemur -24.6489 3.51845 23.6539
rtibia 30.5655
rfoot -5.33201 -3.74413
rtoes 4.5335
lfemur 9.82672 -5.35693 -21.1005
ltibia 41.6323
lfoot 8.21698 -15.269
ltoes -16.2552
396
root 0.457697 17.7775 37.0825 -3.45344 3.01958 -1.40808
lowerback 8.88992 -1.97544 -0.934883
upperback 0.488394 -2.57821 3.15791
thorax -4.28894 -1.23196 4.13664
lowerneck -15.8782 -2.87817 -2.38265
upperneck 19.5575 -3.61761 1.0256
head 8.79999 -1.77046 0.301101
rclavicle 3.27249e-014 -3.73715e-014
rhumerus -37.4808 -24.6896 -72.1912
rradius 20.4272
rwrist 12.791
rhand -14.3403 21.9636
rfingers 7.12502
rthumb 11.801 -7.68388
lclavicle 3.27249e-014 -3.73715e-014
lhumerus -29.697 -2.58061 82.0151
lradius 31.9893
lwrist 5.65069
lhand -24.7448 27.493
lfingers 7.12502
lthumb 1.75809 57.4655
rfemur -23.7242 3.33181 24.191
rtibia 30.6335
rfoot -5.50898 -3.94881
rtoes 5.84458
lfemur 8.73942 -5.65268 -20.5487
ltibia 43.8281
lfoot 11.4097 -16.4784
ltoes -11.9927
397
root 0.434499 17.8047 37.2766 -3.5564 3.27514 -1.80159
lowerback 8.79747 -1.99956 -0.539877
upperback 0.553526 -2.5685 3.25358
thorax -4.18306 -1.23609 4.00575
lowerneck -15.7073 -2.98174 -2.61009
upperneck 19.2689 -3.75979 1.28237
head 8.68326 -1.82799 0.411994
rclavicle 2.73329e-016 -4.13472e-014
rhumerus -37.5115 -24.3223 -72.3841
rradius 20.6988
rwrist 12.0646
rhand -14.354 22.0239
rfingers 7.12502
rthumb 11.7878 -7.62437
lclavicle 2.73329e-016 -4.13472e-014
lhumerus -29.8098 -2.89329 82.4339
lradius 31.6058
lwrist 6.52605
lhand -25.6572 26.0901
lfingers 7.12502
lthumb 0.876804 56.068
rfemur -22.9604 3.33653 24.7753
rtibia 30.6629
rfoot -5.58497 -4.27456
rtoes 7.32569
lfemur 7.48972 -5.99796 -19.9672
ltibia 45.9514
lfoot 14.6868 -17.3267
ltoes -9.34912
398
root 0.414198 17.8258 37.4652 -3.65346 3.38396 -2.26604
lowerback 8.78091 -1.99142 -0.0593578
upperback 0.685848 -2.50826 3.36534
thorax -4.05593 -1.21668 3.83907
lowerneck -15.9235 -3.01416 -2.57496
upperneck 19.1698 -3.80316 1.27323
head 8.68858 -1.84525 0.395326
rclavicle -7.95139e-015 -3.97569e-015
rhumerus -37.3247 -23.84 -72.8228
rradius 21.1246
rwrist 11.2683
rhand -14.4857 22.4257
rfingers 7.12502
rthumb 11.6608 -7.22986
lclavicle -7.95139e-015 -3.97569e-015
lhumerus -29.8574 -3.33327 82.8575
lradius 31.4703
lwrist 7.27604
lhand -26.7834 23.8117
lfingers 7.12502
lthumb -0.210877 53.7913
rfemur -22.2539 3.33011 25.4617
rtibia 30.6579
rfoot -5.67834 -4.35576
rtoes 8.68392
lfemur 6.23936 -6.24385 -19.2981
ltibia 48.0827
lfoot 17.6232 -17.9309
ltoes -7.57398
399
root 0.396553 17.8522 37.6483 -3.71652 3.45238 -2.74615
lowerback 8.88058 -2.03477 0.362716
upperback 0.780718 -2.517 3.53647
thorax -4.02291 -1.22786 3.78287
lowerneck -16.1746 -2.96947 -2.45229
upperneck 19.0888 -3.72158 1.08124
head 8.69817 -1.8168 0.317329
rclavicle 3.05383e-014 1.59028e-015
rhumerus -36.8114 -23.3558 -73.2239
rradius 21.1905
rwrist 11.0259
rhand -14.6244 23.468
rfingers 7.12502
rthumb 11.527 -6.195
lclavicle 3.05383e-014 1.59028e-015
lhumerus -29.9286 -3.47763 83.2229
lradius 31.396
lwrist 7.50413
lhand -28.1405 22.8418
lfingers 7.12502
lthumb -1.52159 52.8161
rfemur -21.5509 3.41243 26.1618
rtibia 30.5652
rfoot -5.76422 -4.59655
rtoes 8.89237
lfemur 4.7878 -6.39462 -18.6105
ltibia 50.288
lfoot 20.6408 -18.6269
ltoes -6.60674
